<?xml version="1.0" encoding="UTF-8"?>
<svg width="1046px" height="330px" viewBox="0 0 1046 330" version="1.1" xmlns="http://www.w3.org/2000/svg" xmlns:xlink="http://www.w3.org/1999/xlink">
    <!-- Generator: Sketch 58 (84663) - https://sketch.com -->
    <title>logotpe</title>
    <desc>Created with Sketch.</desc>
    <g id="Page-1" stroke="none" stroke-width="1" fill="none" fill-rule="evenodd">
        <g id="logotpe" fill-rule="nonzero">
            <g id="Group-2">
                <rect id="Rectangle" fill="#8D99FF" x="0" y="0" width="330" height="330" rx="60"></rect>
                <path d="M94.04,119.98 L94.04,157.08 L130.72,157.08 L130.72,119.98 L152.56,119.98 L152.56,217 L130.72,217 L130.72,175.84 L94.04,175.84 L94.04,217 L72.2,217 L72.2,119.98 L94.04,119.98 Z M203.38,118.86 C217.940073,118.86 229.093295,121.449974 236.84,126.63 C244.586705,131.810026 248.46,139.859945 248.46,150.78 C248.46,157.593367 246.896682,163.123312 243.77,167.37 C240.643318,171.616688 236.140029,174.953321 230.26,177.38 C232.22001,179.806679 234.273323,182.583318 236.42,185.71 C238.566677,188.836682 240.68999,192.103316 242.79,195.51 C244.890011,198.916684 246.91999,202.463315 248.88,206.15 C250.84001,209.836685 252.659992,213.453316 254.34,217 L229.84,217 L225.810628,209.781255 C225.358545,208.970422 224.905002,208.156671 224.45,207.34 C222.629991,204.073317 220.763343,200.900015 218.85,197.82 C216.936657,194.739985 215.046676,191.823347 213.18,189.07 C211.313324,186.316653 209.446676,183.820011 207.58,181.58 L196.8,181.58 L196.8,217 L174.96,217 L174.96,121.38 C179.720024,120.446662 184.643308,119.793335 189.73,119.42 L191.61235,119.288749 C195.945796,119.002915 199.868316,118.86 203.38,118.86 Z M204.64,137.48 C203.053325,137.48 201.630006,137.526666 200.37,137.62 C199.613996,137.676 198.883199,137.732 198.177601,137.788 L198.177601,137.788 L196.8,137.9 L196.8,164.22 L202.96,164.22 C211.173374,164.22 217.053316,163.193344 220.6,161.14 C224.146684,159.086656 225.92,155.586691 225.92,150.64 C225.92,145.879976 224.123351,142.496677 220.53,140.49 C216.936649,138.483323 211.640035,137.48 204.64,137.48 Z" id="HR" fill="#FFFFFF"></path>
            </g>
            <path d="M445.32,118.86 C459.786739,118.86 470.893295,121.403308 478.64,126.49 C486.386705,131.576692 490.26,139.906609 490.26,151.48 C490.26,163.146725 486.340039,171.569974 478.5,176.75 C470.659961,181.930026 459.460073,184.52 444.9,184.52 L438.04,184.52 L438.04,217 L416.2,217 L416.2,121.38 C420.960024,120.446662 425.999973,119.793335 431.32,119.42 L433.170526,119.295986 C437.729013,119.005327 441.778806,118.86 445.32,118.86 Z M446.72,137.48 C445.133325,137.48 443.570008,137.526666 442.03,137.62 L440.559998,137.713333 C439.626666,137.775556 438.78667,137.837777 438.04,137.9 L438.04,165.9 L444.9,165.9 C452.460038,165.9 458.153314,164.873344 461.98,162.82 C465.806686,160.766656 467.72,156.940028 467.72,151.34 C467.72,148.63332 467.230005,146.393342 466.25,144.62 C465.269995,142.846658 463.870009,141.423339 462.05,140.35 C460.229991,139.276661 458.013346,138.530002 455.4,138.11 C452.786654,137.689998 449.893349,137.48 446.72,137.48 Z M561.8,217 C560.773328,213.639983 559.630006,210.186684 558.37,206.64 C557.109994,203.093316 555.873339,199.546684 554.66,196 L516.86,196 C516.051107,198.364456 515.231852,200.728889 514.402224,203.093329 L513.15,206.64 C511.889994,210.186684 510.746672,213.639983 509.72,217 L487.04,217 L488.183273,213.725307 C491.21545,205.063126 494.115224,196.963614 496.882657,189.426599 L497.4,188.02 C500.448904,179.744403 503.436788,171.916088 506.363731,164.534851 L506.99,162.96 C510.116682,155.119961 513.196652,147.676702 516.23,140.63 C519.263349,133.583298 522.413317,126.700034 525.68,119.98 L546.54,119.98 C549.713349,126.700034 552.839985,133.583298 555.92,140.63 C559.000015,147.676702 562.103318,155.119961 565.23,162.96 C568.356682,170.800039 571.553317,179.153289 574.82,188.02 L576.381334,192.279347 C579.181853,199.956989 582.114722,208.197149 585.18,217 L561.8,217 Z M535.62,141.96 L535.434062,142.509064 C534.974687,143.846357 534.336671,145.576656 533.52,147.7 L529.68361,157.713893 C528.848794,159.902042 527.962133,162.235362 527.023613,164.713883 L526.31,166.6 C524.863326,170.426686 523.393341,174.439979 521.9,178.64 L549.48,178.64 L548.368748,175.524994 C547.449998,172.958328 546.549482,170.464592 545.667189,168.043755 L545.14,166.6 C543.85666,163.092205 542.632157,159.858946 541.46646,156.900142 L539.768638,152.604138 C539.419605,151.716093 539.086036,150.863393 538.76793,150.046038 L536.675288,144.638042 C536.27043,143.599348 535.918668,142.70667 535.62,141.96 Z M626.2,118.86 C640.760073,118.86 651.913295,121.449974 659.66,126.63 C667.406705,131.810026 671.28,139.859945 671.28,150.78 C671.28,157.593367 669.716682,163.123312 666.59,167.37 C663.463318,171.616688 658.960029,174.953321 653.08,177.38 C655.04001,179.806679 657.093323,182.583318 659.24,185.71 C661.386677,188.836682 663.50999,192.103316 665.61,195.51 C667.71001,198.916684 669.73999,202.463315 671.7,206.15 C673.66001,209.836685 675.479992,213.453316 677.16,217 L652.66,217 L648.630628,209.781255 C648.178545,208.970422 647.725002,208.156671 647.27,207.34 C645.449991,204.073317 643.583343,200.900015 641.67,197.82 C639.756657,194.739985 637.866676,191.823347 636,189.07 C634.133324,186.316653 632.266676,183.820011 630.4,181.58 L619.62,181.58 L619.62,217 L597.78,217 L597.78,121.38 C602.540024,120.446662 607.463308,119.793335 612.55,119.42 L614.43235,119.288749 C618.765796,119.002915 622.688316,118.86 626.2,118.86 Z M627.46,137.48 C625.873325,137.48 624.450006,137.526666 623.19,137.62 L620.997601,137.788 C620.527202,137.825333 620.068002,137.862666 619.62,137.9 L619.62,164.22 L625.78,164.22 C633.993374,164.22 639.873316,163.193344 643.42,161.14 C646.966684,159.086656 648.74,155.586691 648.74,150.64 C648.74,145.879976 646.943351,142.496677 643.35,140.49 C639.756649,138.483323 634.460035,137.48 627.46,137.48 Z M761.72,119.98 L761.72,138.6 L732.46,138.6 L732.46,217 L710.62,217 L710.62,138.6 L681.36,138.6 L681.36,119.98 L761.72,119.98 Z M840.82,217 C834.566635,205.893278 827.800036,194.926721 820.52,184.1 C813.239964,173.273279 805.493374,163.053381 797.28,153.44 L797.28,217 L775.72,217 L775.72,119.98 L793.5,119.98 C796.580015,123.060015 799.986648,126.839978 803.72,131.32 C807.453352,135.800022 811.256647,140.583308 815.13,145.67 C819.003353,150.756692 822.853314,156.029973 826.68,161.49 C830.506686,166.950027 834.099983,172.199975 837.46,177.24 L837.46,119.98 L859.16,119.98 L859.16,217 L840.82,217 Z M947.08,119.98 L947.08,138.32 L903.4,138.32 L903.4,157.36 L942.18,157.36 L942.18,175.28 L903.4,175.28 L903.4,198.66 L950.3,198.66 L950.3,217 L881.56,217 L881.56,119.98 L947.08,119.98 Z M994.82,118.86 C1009.38007,118.86 1020.53329,121.449974 1028.28,126.63 C1036.02671,131.810026 1039.9,139.859945 1039.9,150.78 C1039.9,157.593367 1038.33668,163.123312 1035.21,167.37 C1032.08332,171.616688 1027.58003,174.953321 1021.7,177.38 C1023.66001,179.806679 1025.71332,182.583318 1027.86,185.71 C1030.00668,188.836682 1032.12999,192.103316 1034.23,195.51 C1036.33001,198.916684 1038.35999,202.463315 1040.32,206.15 C1042.28001,209.836685 1044.09999,213.453316 1045.78,217 L1021.28,217 L1017.25063,209.781255 C1016.79854,208.970422 1016.345,208.156671 1015.89,207.34 C1014.06999,204.073317 1012.20334,200.900015 1010.29,197.82 C1008.37666,194.739985 1006.48668,191.823347 1004.62,189.07 C1002.75332,186.316653 1000.88668,183.820011 999.02,181.58 L988.24,181.58 L988.24,217 L966.4,217 L966.4,121.38 C971.160024,120.446662 976.083308,119.793335 981.17,119.42 L983.05235,119.288749 C987.385796,119.002915 991.308316,118.86 994.82,118.86 Z M996.08,137.48 C994.493325,137.48 993.070006,137.526666 991.81,137.62 C991.053996,137.676 990.323199,137.732 989.617601,137.788 L989.617601,137.788 L988.24,137.9 L988.24,164.22 L994.4,164.22 C1002.61337,164.22 1008.49332,163.193344 1012.04,161.14 C1015.58668,159.086656 1017.36,155.586691 1017.36,150.64 C1017.36,145.879976 1015.56335,142.496677 1011.97,140.49 C1008.37665,138.483323 1003.08004,137.48 996.08,137.48 Z" id="PARTNER" fill="#FFFFFF"></path>
        </g>
    </g>
</svg>